# xmcd
#
# Track frame offsets:
#	150
#	15214
#	30461
#	42598
#	55708
#	70070
#	83524
#	98069
#	112591
#	126273
#	142132
#	154809
#	169214
#	181796
#	195008
#	209935
#	223092
#	236374
#	249499
#	263576
#	278113
#	292800
#
# Disc length: 4094 seconds
#
# Revision: 0
# Processed by: cddbd v1.4PL0 Copyright (c) Steve Scherf et al.
# Submitted via: dBpowerAMP V4.0
#
DISCID=270ffc16
DTITLE=Various Artist - The Essential Country Blues Guitar Collection vol 2
DYEAR=1999
DGENRE=Blues
TTITLE0=Moon going down - Charlie Patton
TTITLE1=Big road blues - Tommy Johnson
TTITLE2=When you got a good friend - Robert Johnson
TTITLE3=Drunken Barrelhouse - Memphis Minnie
TTITLE4=Bye bye baby blues - Little Hat Jones
TTITLE5=Crow Jane - Carl Martin
TTITLE6=Tired of being mistreated - Clifford Gibson
TTITLE7=To do this you got to know how - Lonnie Johnson
TTITLE8=Yo yo blues - Barbecue Bob
TTITLE9=Bull doze blues - Henry Thomas
TTITLE10=Keep it clean - Charlie Jordan
TTITLE11=Ragtime millionaire - Willie Moore
TTITLE12=Shave 'em dry - Papa Charlie Jackson
TTITLE13=Southern Rag - Blind Blake
TTITLE14=I belong to the band - Rev. Gary Davis
TTITLE15=Bull cow blues - Big Bill Broonzy
TTITLE16=Special agent - Sleepy John Estes
TTITLE17=Hard time killing floor - Skip James
TTITLE18=Eagles on a half - Geechie Wiley/John Byrd
TTITLE19=Dry spell blues - Son House
TTITLE20=You can't keep no brown - Bo Weavil Jackson
TTITLE21=Panama Limited - Bukka White
EXTD=
EXTT0=
EXTT1=
EXTT2=
EXTT3=
EXTT4=
EXTT5=
EXTT6=
EXTT7=
EXTT8=
EXTT9=
EXTT10=
EXTT11=
EXTT12=
EXTT13=
EXTT14=
EXTT15=
EXTT16=
EXTT17=
EXTT18=
EXTT19=
EXTT20=
EXTT21=
PLAYORDER=
